<svg width="177pt" height="45pt" viewBox="0.00 0.00 177.21 45.00" xmlns="http://www.w3.org/2000/svg" xmlns:xlink="http://www.w3.org/1999/xlink">
<g id="graph0" class="graph" transform="scale(1 1) rotate(0) translate(4 41)">
<title>Applications</title>
<polygon fill="#ffffff" stroke="transparent" points="-4,4 -4,-41 173.2132,-41 173.2132,4 -4,4"></polygon>
<!-- a -->
<g id="node1" class="node">
<title>a</title>
<polygon fill="none" stroke="#000000" points="0,-.5 0,-36.5 66.6066,-36.5 66.6066,-.5 0,-.5"></polygon>
<text text-anchor="middle" x="9.75" y="-14.4" font-family="Times,serif" font-size="14.00" fill="#000000"> </text>
<polyline fill="none" stroke="#000000" points="19.5,-.7 19.5,-36.5 "></polyline>
<text text-anchor="middle" x="43.0533" y="-14.4" font-family="Times,serif" font-size="14.00" fill="#000000">App1</text>
</g>
<!-- b -->
<g id="node2" class="node">
<title>b</title>
<polygon fill="none" stroke="#000000" points="102.6066,-.5 102.6066,-36.5 169.2132,-36.5 169.2132,-.5 102.6066,-.5"></polygon>
<text text-anchor="middle" x="112.3566" y="-14.4" font-family="Times,serif" font-size="14.00" fill="#000000"> </text>
<polyline fill="none" stroke="#000000" points="122.1066,-.7 122.1066,-36.5 "></polyline>
<text text-anchor="middle" x="145.6599" y="-14.4" font-family="Times,serif" font-size="14.00" fill="#000000">App2</text>
</g>
<!-- b&#45;&gt;a -->
<g id="edge1" class="edge">
<title>b:a-&gt;a:data</title>
<path fill="none" stroke="#000000" d="M103.8364,-18.5C96.9999,-18.5 86.6991,-18.5 76.431,-18.5"></path>
<ellipse fill="#000000" stroke="#000000" cx="107.9099" cy="-18.5" rx="4" ry="4"></ellipse>
<polygon fill="#000000" stroke="#000000" points="66.3033,-18.5 76.3033,-14.0001 71.3033,-18.5 76.3033,-18.5001 76.3033,-18.5001 76.3033,-18.5001 71.3033,-18.5 76.3033,-23.0001 66.3033,-18.5 66.3033,-18.5"></polygon>
</g>
</g>
</svg>
